<svg width="64" height="64" viewBox="0 0 64 64" fill="none" xmlns="http://www.w3.org/2000/svg">
<path d="M0.147886 43.8399C0.365386 44.2462 0.789011 44.5 1.25001 44.5H7.50001V62.75C7.50001 63.4402 8.05964 64 8.75001 64H55.25C55.9404 64 56.5 63.4402 56.5 62.75V44.5H62.75C63.211 44.5 63.6346 44.2462 63.8521 43.8399C64.0696 43.4334 64.0458 42.9403 63.79 42.5566L56.29 31.3066C56.0583 30.9589 55.6679 30.75 55.25 30.75H50.5C49.8096 30.75 49.25 31.3096 49.25 32C49.25 32.6904 49.8096 33.25 50.5 33.25H54.581L60.4144 42H40.169L34.3356 33.25H39.25C39.9404 33.25 40.5 32.6904 40.5 32C40.5 31.3096 39.9404 30.75 39.25 30.75C37.8225 30.75 10.1315 30.75 8.75001 30.75C8.33201 30.75 7.94176 30.9589 7.71001 31.3066L0.210011 42.5566C-0.0457392 42.9403 -0.0696142 43.4334 0.147886 43.8399V43.8399ZM10 44.5H24.5C24.918 44.5 25.3083 44.2911 25.54 43.9434L30.75 36.1284V61.5H10V44.5ZM38.46 43.9434C38.6918 44.2911 39.0821 44.5 39.5 44.5H54V61.5H33.25V36.1284L38.46 43.9434ZM9.41901 33.25H29.6644L23.831 42H3.58564L9.41901 33.25Z" fill="#CB3142"/>
<path d="M24.5 3.12875C23.479 1.62825 21.7164 0 18.875 0C14.8694 0 12 3.22813 12 7.12125C12 11.4436 15.4981 14.2825 20.7934 18.5795C21.7212 19.3324 22.6806 20.111 23.6999 20.9603C23.9316 21.1534 24.2158 21.2499 24.5 21.2499C24.7842 21.2499 25.0684 21.1534 25.3001 20.9603C26.3194 20.111 27.2788 19.3324 28.2066 18.5795C33.5019 14.2825 37 11.4436 37 7.12125C37 3.225 34.1276 0 30.125 0C27.2836 0 25.5211 1.62825 24.5 3.12875ZM34.5 7.12125C34.5 10.2528 31.3697 12.7931 26.6314 16.6383C25.9427 17.197 25.2369 17.7699 24.5 18.3769C23.7631 17.77 23.0573 17.1971 22.3686 16.6383C17.6304 12.7931 14.5 10.2529 14.5 7.12125C14.5 4.48675 16.3809 2.5 18.875 2.5C22.1384 2.5 23.2543 6.1335 23.2989 6.2835C23.453 6.81888 23.9429 7.1875 24.5 7.1875C25.0571 7.1875 25.547 6.81875 25.7011 6.2835C25.7121 6.24563 26.8289 2.5 30.125 2.5C32.6191 2.5 34.5 4.48675 34.5 7.12125Z" fill="#CB3142"/>
<path d="M47 25C47.2939 25 47.5876 24.8969 47.8232 24.6906C48.5022 24.0964 49.1423 23.551 49.761 23.0236C53.2379 20.0605 55.75 17.9197 55.75 14.735C55.75 11.7294 53.5538 9.375 50.75 9.375C48.9657 9.375 47.7695 10.2824 47 11.2542C46.2305 10.2824 45.0344 9.375 43.25 9.375C40.4462 9.375 38.25 11.7294 38.25 14.735C38.25 17.9197 40.7621 20.0605 44.239 23.0236C44.8579 23.551 45.4978 24.0964 46.1768 24.6906C46.4124 24.8969 46.7063 25 47 25ZM40.75 14.735C40.75 13.3485 41.6261 11.875 43.25 11.875C45.0925 11.875 45.7651 14.1348 45.7961 14.2425C45.9469 14.7825 46.4381 15.1594 46.9991 15.1594C47.5621 15.1594 48.0548 14.7862 48.2038 14.2432C48.2314 14.1466 48.9026 11.875 50.75 11.875C52.3739 11.875 53.25 13.3485 53.25 14.735C53.25 16.7655 51.3264 18.4049 48.1395 21.1208C47.7689 21.4366 47.3906 21.7589 47 22.0951C46.6094 21.7589 46.2313 21.4366 45.8605 21.1208C42.6736 18.4049 40.75 16.7655 40.75 14.735V14.735Z" fill="#CB3142"/>
<path d="M44.875 33.25C45.5654 33.25 46.125 32.6904 46.125 32C46.125 31.3096 45.5654 30.75 44.875 30.75C44.1846 30.75 43.625 31.3096 43.625 32C43.625 32.6904 44.1846 33.25 44.875 33.25Z" fill="#CB3142"/>
</svg>
