<svg width="64" height="64" viewBox="0 0 64 64" fill="none" xmlns="http://www.w3.org/2000/svg">
<path d="M53.3936 40.19L52.1836 39.876C51.1348 43.9185 48.3814 47.3126 44.6293 49.1882L45.1883 50.3064C49.2635 48.2694 52.2543 44.582 53.3936 40.19Z" fill="#CB3142"/>
<path d="M56.5092 54.8232H4.97156V56.0732H56.5092V54.8232Z" fill="#CB3142"/>
<path d="M7.66856 33.6895C7.74481 33.2952 7.81868 32.9254 7.89043 32.5758L11.3437 33.8463L11.7753 32.6732L8.15393 31.3408C8.63493 29.1812 9.00818 28.0273 9.31943 27.1822C9.66281 26.2483 10.3496 25.504 11.2533 25.0865C12.1571 24.669 13.1691 24.6285 14.1034 24.9725C15.0377 25.3159 15.7821 26.0027 16.1996 26.9064C16.6169 27.81 16.6577 28.8222 16.3143 29.756C16.2701 29.8762 16.2049 30.0355 16.1214 30.2287L13.0856 29.1117L12.6539 30.2848L15.5997 31.3687C15.1397 32.3377 14.5081 33.6013 13.7899 34.9628H5.50343V36.2473C5.50343 36.5959 5.51381 36.9487 5.53431 37.2957C5.94506 44.2778 10.4192 50.1199 16.5738 52.5795H4.97156V53.8295H23.0858H38.3949H56.5092V52.5795H44.9052C51.3866 49.9869 55.9772 43.6435 55.9772 36.2473V36.1469C56.7756 36.019 57.5323 35.7072 58.1986 35.227C59.3338 34.4087 60.0826 33.1975 60.3072 31.8164C60.5321 30.4349 60.2052 29.0489 59.3871 27.914C58.8067 27.1085 58.0157 26.5018 57.1258 26.1358C57.4403 25.686 57.6403 25.1575 57.6904 24.6059C57.7187 24.3009 57.7021 23.9918 57.6408 23.6859C57.2923 21.9723 55.6144 20.8608 53.9002 21.2089C53.6038 21.2692 53.3212 21.3703 53.0591 21.5075C53.0543 21.4773 53.0511 21.447 53.0459 21.4167C52.7596 19.7412 51.8381 18.2773 50.4508 17.2949C47.5872 15.2669 43.6077 15.9468 41.5796 18.8104C41.2537 19.2707 40.9963 19.7668 40.8067 20.2837C37.9794 19.5964 35.0789 21.2612 34.2686 24.0824C33.9159 25.3087 34.0044 26.626 34.5177 27.7918L35.6617 27.2882C35.2659 26.3895 35.1978 25.3737 35.4698 24.4278C35.7804 23.3464 36.4936 22.4507 37.4778 21.9057C38.4048 21.3927 39.4677 21.2487 40.4922 21.4929C40.2727 22.887 40.5138 24.3455 41.2284 25.6147L42.3177 25.0014C41.3516 23.2855 41.4622 21.1392 42.5997 19.5329C43.3889 18.4183 44.5653 17.6777 45.9117 17.4477C47.2579 17.2177 48.6134 17.5257 49.7282 18.3152C50.8428 19.1045 51.5836 20.2808 51.8136 21.6272C52.0436 22.9735 51.7354 24.329 50.9461 25.4437L51.9662 26.166C52.6339 25.2233 53.0241 24.142 53.1161 23.0202C53.3891 22.7217 53.7477 22.5155 54.1491 22.4339C55.1882 22.2233 56.2046 22.8965 56.4154 23.9334C56.4527 24.1189 56.4628 24.3064 56.4457 24.4918C56.4006 24.9902 56.1542 25.4574 55.7758 25.7809C55.2523 25.7149 54.7158 25.7245 54.1831 25.8224L54.4088 27.0519C55.9202 26.7742 57.4761 27.3995 58.3731 28.6448C59.6587 30.4284 59.2527 32.9263 57.4678 34.213C56.8012 34.6934 56.0157 34.9523 55.1956 34.9627H48.3269C50.2021 32.2253 51.7837 32.0807 51.8011 32.0795L51.7883 32.08L51.7529 30.8305C51.4981 30.8378 49.2443 31.0182 46.8403 34.9627H46.5287C46.5508 34.7604 46.5652 34.5565 46.5684 34.3514C46.5959 32.5707 45.9233 30.8914 44.6746 29.6232C43.4254 28.3545 41.7573 27.6559 39.9773 27.6559C38.8646 27.6559 37.7632 27.9388 36.7918 28.4744C36.5059 28.6328 36.2039 28.7824 35.8947 28.9189C34.3067 29.6189 32.6292 29.9008 31.0434 29.7335C30.9122 29.7198 30.7783 29.7133 30.6434 29.7112C29.1852 28.4924 27.5343 27.4455 26.2528 26.706C26.2269 25.3088 26.3504 23.9004 26.6223 22.5179L26.7689 21.7723H26.0091C25.6584 21.7723 24.7626 21.8527 24.0184 22.5968C23.9474 22.6679 23.8813 22.7425 23.8189 22.8195C23.7566 22.7425 23.6904 22.6679 23.6194 22.5968C22.8752 21.8525 21.9794 21.7723 21.6288 21.7723H20.8689L21.0154 22.5178C21.2873 23.9004 21.4107 25.3087 21.3849 26.7053C20.3213 27.3188 19.0034 28.1435 17.7533 29.1027C17.8731 28.1824 17.7332 27.2452 17.3344 26.382C17.0517 25.77 16.6564 25.233 16.1731 24.792C16.4498 24.6127 16.7154 24.4023 16.9488 24.2054C17.8472 23.447 18.8892 22.3307 19.8829 21.062C20.8766 19.7938 21.7107 18.5149 22.2317 17.461C22.6628 16.5889 23.1533 15.3644 22.4369 14.8025C21.8534 14.3454 20.8881 14.727 19.5582 15.936C19.5766 15.7668 19.5909 15.6014 19.5999 15.4417C19.7048 13.5744 19.1112 12.9559 18.5947 12.7659C17.6813 12.4299 16.6608 13.2849 15.7543 14.6403C15.5312 12.7865 15.0388 11.8333 14.2831 11.8025C13.3801 11.7662 12.9537 13.0164 12.7168 13.96C12.4304 15.1003 12.2368 16.6147 12.1714 18.2244C12.1059 19.8347 12.1758 21.3603 12.3684 22.52C12.4198 22.8295 12.4878 23.1722 12.5868 23.4959C11.9524 23.5253 11.3233 23.6772 10.7293 23.9515C9.52231 24.509 8.60506 25.5032 8.14656 26.7502C7.72056 27.9068 7.18481 29.6077 6.44131 33.4519L7.66856 33.6895ZM16.9568 31.4182C17.4236 30.9728 17.9352 30.5428 18.4641 30.1357C17.6489 31.4804 17.0863 33.0463 17.0863 34.7069C17.0863 34.7924 17.0894 34.8775 17.0912 34.9629H15.2014C15.9328 33.5577 16.5407 32.319 16.9568 31.4182ZM26.2059 32.9914H23.9178V34.2414H26.0267C26.0262 34.4847 26.0438 34.7257 26.0814 34.9629H21.8698C21.8689 34.8775 21.8676 34.7924 21.8676 34.7069C21.8676 31.8177 22.6624 29.4067 23.3057 28.0637V28.2437H23.3069L23.3068 28.0614C23.5049 27.6479 23.6889 27.3345 23.8304 27.1415C24.2133 27.6437 24.9142 29.0069 25.3754 31.103L26.5963 30.8345C26.3539 29.7327 26.0087 28.6682 25.6106 27.7825C26.6033 28.3552 27.8271 29.1178 28.9872 29.9929C28.0549 30.3408 27.2471 30.9938 26.7056 31.8683C26.4873 32.2193 26.3204 32.5978 26.2059 32.9914ZM18.3412 34.9629C18.3392 34.8775 18.3363 34.7925 18.3363 34.7069C18.3363 32.2328 19.8136 30.2079 20.6942 29.2212C21.1233 28.7403 21.5482 28.3442 21.9422 28.0253C21.8629 28.2134 21.7884 28.4015 21.7194 28.5848C21.3079 29.6778 20.6177 31.9265 20.6177 34.7069C20.6177 34.7924 20.6191 34.8775 20.6199 34.9629H18.3412ZM54.7272 36.2474C54.7272 45.2532 47.4006 52.5797 38.3949 52.5797H23.0858C14.4502 52.5797 7.28881 45.8339 6.78218 37.2223C6.76318 36.8997 6.75356 36.5717 6.75356 36.2474V36.2129H54.7273V36.2474H54.7272ZM36.9223 34.2473C36.9223 32.5527 38.3014 31.1742 39.9968 31.1742C41.6914 31.1742 43.0701 32.5528 43.0701 34.2473C43.0701 34.4907 43.0387 34.7295 42.9829 34.9629H37.0098C36.9537 34.7302 36.9223 34.4913 36.9223 34.2473ZM36.3991 30.0629C36.7428 29.9112 37.0788 29.7447 37.3963 29.5687C38.1824 29.1353 39.0749 28.9062 39.9772 28.9062C41.4196 28.9062 42.7714 29.4724 43.7838 30.5004C44.7958 31.5282 45.3408 32.889 45.3184 34.3319C45.3151 34.5442 45.2978 34.755 45.2698 34.9629H44.2598C44.2989 34.7277 44.3198 34.4889 44.3198 34.2473C44.3198 31.8635 42.3803 29.9242 39.9966 29.9242C37.6121 29.9242 35.6721 31.8635 35.6721 34.2473C35.6721 34.4892 35.6929 34.7279 35.7322 34.9629H27.3536C27.2947 34.6984 27.2684 34.4264 27.2767 34.1502C27.2937 33.5775 27.4632 33.0168 27.7674 32.5273C28.3423 31.5988 29.3267 31.014 30.4006 30.963C30.5742 30.9548 30.7462 30.9595 30.9119 30.977C32.7148 31.1667 34.6118 30.8508 36.3991 30.0629ZM24.9022 23.481C25.0077 23.3755 25.1196 23.2942 25.2306 23.2314C25.0926 24.1544 25.0164 25.085 25.0016 26.0135C24.7792 25.8958 24.5912 25.7989 24.4438 25.7243V24.5878C24.4438 24.1697 24.6066 23.7767 24.9022 23.481ZM22.4069 23.2314C22.5179 23.2942 22.6298 23.3755 22.7353 23.481C23.0309 23.7767 23.1937 24.1697 23.1937 24.5878V25.7242C23.0463 25.7987 22.8577 25.8959 22.6359 26.0133C22.6212 25.0849 22.5451 24.1544 22.4069 23.2314ZM21.4794 16.0268C21.2459 16.762 20.4561 18.3037 18.8988 20.2915C18.5163 20.7798 18.1492 21.216 17.8028 21.6033C18.1059 20.9967 18.3826 20.352 18.6206 19.7052C18.8107 19.1888 18.9738 18.6752 19.1123 18.173C20.2072 16.9584 21.0201 16.306 21.4794 16.0268ZM18.1618 13.9427C18.4267 14.1952 18.5997 16.1423 17.4477 19.2734C16.2954 22.4048 14.9016 23.7754 14.5363 23.7959C14.2714 23.5434 14.0983 21.5963 15.2504 18.465C16.4027 15.3337 17.7966 13.9632 18.1618 13.9427ZM13.4204 18.2755C13.5228 15.7525 13.9207 14.0667 14.2193 13.3554C14.3931 13.8804 14.5962 14.9465 14.6348 16.6642L14.6417 16.664C14.4368 17.1107 14.2473 17.5715 14.0773 18.0334C13.8106 18.7584 13.5823 19.513 13.4127 20.2472C13.3916 19.6594 13.3908 19.0015 13.4204 18.2755Z" fill="#CB3142"/>
<path d="M9.87947 29.2635L11.5308 29.8711L11.9624 28.698L10.3111 28.0904L9.87947 29.2635Z" fill="#CB3142"/>
<path d="M56.2976 32.7925C55.8471 33.1169 55.2973 33.2463 54.7492 33.1574L54.5487 34.3911C54.7295 34.4205 54.9105 34.4351 55.09 34.4351C55.7822 34.4351 56.4553 34.2193 57.0281 33.807C57.7495 33.2875 58.2253 32.518 58.3682 31.6405C58.5108 30.763 58.3032 29.8825 57.7838 29.1611L56.7695 29.8916C57.094 30.3421 57.2235 30.892 57.1343 31.4399C57.0451 31.9876 56.748 32.468 56.2976 32.7925Z" fill="#CB3142"/>
<path d="M45.528 20.7726L45.8735 19.5713C44.4408 19.1596 42.9395 19.99 42.5275 21.4229C42.1156 22.8559 42.9464 24.3568 44.3793 24.7688L44.7245 23.5674C43.954 23.3459 43.5075 22.5388 43.7289 21.7683C43.9504 20.9978 44.7575 20.5511 45.528 20.7726Z" fill="#CB3142"/>
<path d="M23.727 12.4692H24.977V10.9207H26.5256V9.6707H24.977V8.12207H23.727V9.6707H22.1785V10.9207H23.727V12.4692Z" fill="#CB3142"/>
<path d="M38.3588 18.06H39.6088V16.5115H41.1574V15.2615H39.6088V13.7129H38.3588V15.2615H36.8102V16.5115H38.3588V18.06Z" fill="#CB3142"/>
<path d="M5.17192 23.3579H6.42192V21.8094H7.97054V20.5594H6.42192V19.0107H5.17192V20.5594H3.62329V21.8094H5.17192V23.3579Z" fill="#CB3142"/>
</svg>
