<svg width="64" height="64" viewBox="0 0 64 64" fill="none" xmlns="http://www.w3.org/2000/svg">
<path d="M54.2698 41.6369C53.0445 39.6184 49.8113 38.7276 47.9929 38.3761C44.6743 37.7349 40.3974 37.7836 38.3244 39.3384C37.642 39.8505 37.3021 40.9087 37.2228 42.7699C37.2123 43.0151 37.2076 43.2546 37.2064 43.4815C33.6841 42.1211 30.4328 40.0917 27.6578 37.5211L26.4391 36.3094C23.8576 33.5539 21.8186 30.3254 20.4513 26.8287C20.6799 26.8276 20.9213 26.823 21.1685 26.8126C23.0363 26.7337 24.0984 26.3964 24.6124 25.7189C26.1693 23.6667 26.2256 19.4295 25.5909 16.1406C25.239 14.3167 24.3435 11.0742 22.3015 9.84874C20.27 8.62949 17.1301 8.92362 15.8744 9.10687C13.2838 9.48449 11.1285 10.3999 10.1089 11.5551C9.22039 12.562 8.90826 15.4354 8.81539 16.6239C8.81289 16.6551 8.81201 16.6872 8.81251 16.7186C8.96539 26.3995 12.6894 35.6439 19.2983 42.7454C19.3071 42.7547 19.3161 42.768 19.3253 42.7771L21.178 44.6272C21.1871 44.6364 21.1964 44.6611 21.206 44.6696C28.3464 51.2399 37.6384 54.8754 47.3706 55.1254C47.3758 55.1254 47.381 55.1254 47.3861 55.1254C47.4119 55.1254 47.4376 55.0931 47.4634 55.0912C48.6571 54.9989 51.5429 54.6576 52.5535 53.7759C53.7163 52.7614 54.6374 50.6162 55.0176 48.0375C55.2019 46.7871 55.498 43.6606 54.2698 41.6369ZM53.039 47.7456C52.7401 49.7721 52.0166 51.5899 51.2395 52.268C50.8911 52.5551 49.0835 52.9239 47.355 53.0622C38.1378 52.9069 29.3396 49.3985 22.5745 43.1795L20.7495 41.3646C14.4968 34.6392 10.9696 25.8942 10.8134 16.7321C10.9515 15.0177 11.3213 13.224 11.6089 12.878C12.2925 12.1035 14.1228 11.3832 16.1634 11.0857C18.3038 10.7736 20.2618 10.9566 21.2728 11.5635C22.2483 12.149 23.1506 14.048 23.6276 16.5196C24.2536 19.7634 24.0004 23.1726 23.0405 24.4821C22.6529 24.7544 20.8954 24.9002 19.2469 24.8016C19.0679 24.7565 18.8745 24.7595 18.6864 24.8222C18.5221 24.8771 18.3816 24.9706 18.2714 25.0891C18.1125 25.2522 18.008 25.47 17.9903 25.715C17.975 25.9261 18.0269 26.1264 18.1273 26.2957C19.5098 30.3372 21.7214 34.0802 24.598 37.262C24.632 37.3164 24.6718 37.3682 24.7173 37.4167C25.0136 37.7326 25.3165 38.0426 25.6251 38.3459C25.9308 38.6535 26.2428 38.9551 26.5614 39.2504C26.6103 39.2956 26.6624 39.3351 26.7169 39.3687C29.9156 42.2279 33.6786 44.4269 37.741 45.801C37.9103 45.901 38.1103 45.9526 38.3214 45.9367C38.568 45.9189 38.7869 45.8125 38.9501 45.6515C38.9669 45.6357 38.9819 45.6185 38.9976 45.6016C39.0019 45.5967 39.0063 45.5919 39.0106 45.5869C39.0988 45.4879 39.1706 45.3719 39.2149 45.238C39.277 45.0501 39.2795 44.8574 39.234 44.6789C39.1356 43.044 39.2813 41.3022 39.5535 40.9175C40.8813 39.9549 44.3323 39.7059 47.6139 40.34C50.08 40.8166 51.9756 41.7112 52.5604 42.6747C53.1689 43.6775 53.3523 45.6206 53.039 47.7456Z" fill="#CB3142"/>
</svg>
