<svg width="64" height="64" viewBox="0 0 64 64" fill="none" xmlns="http://www.w3.org/2000/svg">
<path d="M31 44.8508C31.7 44.8508 32.325 44.2508 32.325 43.5258C32.325 43.1758 32.2 42.8258 31.95 42.5758C31.7 42.3258 31.375 42.1758 31.05 42.1758C30.275 42.1758 29.7 42.7758 29.7 43.5258C29.675 44.2508 30.275 44.8508 31 44.8508Z" fill="#CB3142"/>
<path d="M29.325 57.0258H34.675C35.375 57.0258 35.95 56.4508 35.95 55.7508C35.95 55.0508 35.375 54.4758 34.675 54.4758H33.275V48.3258C33.275 47.6258 32.7 47.0508 32 47.0508H31.975H31.95H30.05C29.35 47.0508 28.775 47.6258 28.775 48.3258C28.775 49.0258 29.35 49.6008 30.05 49.6008H30.75V54.5008H29.35C28.65 54.5008 28.075 55.0758 28.075 55.7758C28.075 56.4758 28.625 57.0258 29.325 57.0258Z" fill="#CB3142"/>
<path d="M18.95 31.95C19.625 32.075 20.3 31.625 20.425 30.925C20.875 28.375 21.15 27 21.225 26.775C21.65 25.525 22.725 24.875 24.575 24.175L26.1 23.575C26.3 24.025 26.525 24.5 26.8 24.925C27.275 25.675 27.85 26.35 28.575 27.075C28.65 27.15 28.725 27.225 28.875 27.35C28.95 27.425 29.025 27.5 29.1 27.55C29.3 27.725 29.525 27.9 29.75 28.075C30.25 28.45 30.7 28.75 31.2 29.05C31.65 29.3 32.2 29.325 32.725 29.075C32.75 29.075 32.775 29.05 32.8 29.05C33.425 28.7 33.875 28.35 34.225 28.1C34.45 27.925 34.675 27.75 34.875 27.6C34.975 27.525 35.05 27.45 35.175 27.35C35.25 27.275 35.35 27.2 35.475 27.075C36.175 26.4 36.725 25.725 37.2 24.975C37.475 24.525 37.725 24.075 37.9 23.625L39.425 24.225C41.275 24.95 42.375 25.575 42.775 26.8C42.85 27.025 43.1 28.4 43.575 30.95C43.675 31.575 44.225 32 44.825 32C44.9 32 44.975 32 45.05 31.975C45.75 31.85 46.2 31.2 46.075 30.5C45.35 26.475 45.225 26.15 45.2 26C44.325 23.375 41.825 22.4 40.35 21.825L37.55 20.75C37.2 20.625 36.825 20.65 36.5 20.825C36.175 21 35.95 21.3 35.85 21.675C35.825 21.8 35.775 21.925 35.75 22.05C35.6 22.575 35.35 23.1 35.025 23.625C34.65 24.2 34.225 24.725 33.65 25.3L33.225 25.7C33.075 25.85 32.9 25.975 32.7 26.125C32.525 26.275 32.275 26.45 32 26.625C31.775 26.475 31.55 26.325 31.3 26.125C31.125 25.975 30.95 25.85 30.775 25.7L30.325 25.3C29.775 24.775 29.325 24.225 28.975 23.675C28.65 23.15 28.425 22.65 28.25 22.1C28.2 21.975 28.175 21.85 28.15 21.7C28.075 21.35 27.825 21.05 27.5 20.875C27.175 20.7 26.8 20.675 26.45 20.825L23.675 21.9C22.2 22.475 19.7 23.45 18.825 26.075C18.775 26.2 18.675 26.55 17.95 30.575C17.8 31.175 18.275 31.825 18.95 31.95Z" fill="#CB3142"/>
<path d="M23.575 17.1749C25.325 17.6999 27.1 18.0499 28.85 18.2499C28.9 18.2499 28.95 18.2499 29 18.2499C29.625 18.2499 30.175 17.7749 30.25 17.1249C30.325 16.4249 29.825 15.7999 29.125 15.7249C27.525 15.5499 25.9 15.2249 24.325 14.7999L26.925 7.07493C27.425 5.57493 28.6 4.34993 30.05 3.79993C31.075 3.42493 32.25 3.34993 33.35 3.64993C35.05 4.09993 36.5 5.44993 37.075 7.09993C37.125 7.24993 39.625 14.7249 39.7 14.7499C38.1 15.2249 36.475 15.5499 34.875 15.7249C34.175 15.7999 33.675 16.4249 33.75 17.1249C33.825 17.8249 34.45 18.3249 35.15 18.2499C36.9 18.0499 38.675 17.6999 40.425 17.1749C41.075 16.9749 41.625 16.5249 41.925 15.9249C42.25 15.3249 42.3 14.6249 42.075 13.9999C42.075 13.9999 39.5 6.29993 39.475 6.27493C38.65 3.79993 36.55 1.84993 34 1.19993C32.4 0.774928 30.675 0.874928 29.175 1.44993C27 2.24993 25.275 4.04993 24.525 6.27493L21.925 13.9999C21.7 14.6499 21.775 15.3249 22.075 15.9249C22.4 16.5249 22.95 16.9749 23.575 17.1749Z" fill="#CB3142"/>
<path d="M57.9 34.8506H6.10002C5.30002 34.8506 4.65002 35.5006 4.65002 36.3006V43.8506C4.65002 44.6506 5.30002 45.3006 6.10002 45.3006H8.20002L9.92502 61.8256C10 62.5506 10.625 63.1006 11.35 63.1006H52.65C53.375 63.1006 54 62.5506 54.075 61.8256L55.825 45.3006H57.925C58.725 45.3006 59.375 44.6506 59.375 43.8506V36.3006C59.35 35.5006 58.7 34.8506 57.9 34.8506ZM56.8 42.7506H54.825C54.1 42.7506 53.475 43.3006 53.4 44.0506L51.65 60.5756H12.35L10.625 44.0756C10.55 43.3506 9.92502 42.7756 9.20002 42.7756H7.20002V37.4256H56.825V42.7506H56.8Z" fill="#CB3142"/>
</svg>
