<?xml version="1.0" ?><svg id="Layer_1" style="enable-background:new 0 0 256 256;" version="1.1" viewBox="0 0 256 256" xml:space="preserve" xmlns="http://www.w3.org/2000/svg" xmlns:xlink="http://www.w3.org/1999/xlink"><g><path d="M124,179.4c2.8,0,5.3-2.4,5.3-5.3c0-1.4-0.5-2.8-1.5-3.8c-1-1-2.3-1.6-3.6-1.6c-3.1,0-5.4,2.4-5.4,5.4   C118.7,177,121.1,179.4,124,179.4z"/><path d="M117.3,228.1h21.4c2.8,0,5.1-2.3,5.1-5.1s-2.3-5.1-5.1-5.1h-5.6v-24.6c0-2.8-2.3-5.1-5.1-5.1c0,0-0.1,0-0.1,0   c0,0-0.1,0-0.1,0h-7.6c-2.8,0-5.1,2.3-5.1,5.1s2.3,5.1,5.1,5.1h2.8v19.6h-5.6c-2.8,0-5.1,2.3-5.1,5.1S114.5,228.1,117.3,228.1z"/><path d="M75.8,127.8c2.7,0.5,5.4-1.3,5.9-4.1c1.8-10.2,2.9-15.7,3.2-16.6c1.7-5,6-7.6,13.4-10.4l6.1-2.4c0.8,1.8,1.7,3.7,2.8,5.4   c1.9,3,4.2,5.7,7.1,8.6c0.3,0.3,0.6,0.6,1.2,1.1c0.3,0.3,0.6,0.6,0.9,0.8c0.8,0.7,1.7,1.4,2.6,2.1c2,1.5,3.8,2.7,5.8,3.9   c1.8,1,4,1.1,6.1,0.1c0.1,0,0.2-0.1,0.3-0.1c2.5-1.4,4.3-2.8,5.7-3.8c0.9-0.7,1.8-1.4,2.6-2c0.4-0.3,0.7-0.6,1.2-1   c0.3-0.3,0.7-0.6,1.2-1.1c2.8-2.7,5-5.4,6.9-8.4c1.1-1.8,2.1-3.6,2.8-5.4l6.1,2.4c7.4,2.9,11.8,5.4,13.4,10.3   c0.3,0.9,1.3,6.4,3.2,16.6c0.4,2.5,2.6,4.2,5,4.2c0.3,0,0.6,0,0.9-0.1c2.8-0.5,4.6-3.1,4.1-5.9c-2.9-16.1-3.4-17.4-3.5-18   c-3.5-10.5-13.5-14.4-19.4-16.7L150.2,83c-1.4-0.5-2.9-0.4-4.2,0.3c-1.3,0.7-2.2,1.9-2.6,3.4c-0.1,0.5-0.3,1-0.4,1.5   c-0.6,2.1-1.6,4.2-2.9,6.3c-1.5,2.3-3.2,4.4-5.5,6.7l-1.7,1.6c-0.6,0.6-1.3,1.1-2.1,1.7c-0.7,0.6-1.7,1.3-2.8,2   c-0.9-0.6-1.8-1.2-2.8-2c-0.7-0.6-1.4-1.1-2.1-1.7l-1.8-1.6c-2.2-2.1-4-4.3-5.4-6.5c-1.3-2.1-2.2-4.1-2.9-6.3   c-0.2-0.5-0.3-1-0.4-1.6c-0.3-1.4-1.3-2.6-2.6-3.3c-1.3-0.7-2.8-0.8-4.2-0.2l-11.1,4.3c-5.9,2.3-15.9,6.2-19.4,16.7   c-0.2,0.5-0.6,1.9-3.5,18C71.2,124.7,73.1,127.3,75.8,127.8z"/><path d="M94.3,68.7c7,2.1,14.1,3.5,21.1,4.3c0.2,0,0.4,0,0.6,0c2.5,0,4.7-1.9,5-4.5c0.3-2.8-1.7-5.3-4.5-5.6   c-6.4-0.7-12.9-2-19.2-3.7l10.4-30.9c2-6,6.7-10.9,12.5-13.1c4.1-1.5,8.8-1.8,13.2-0.6c6.8,1.8,12.6,7.2,14.9,13.8   c0.2,0.6,10.2,30.5,10.5,30.6c-6.4,1.9-12.9,3.2-19.3,3.9c-2.8,0.3-4.8,2.8-4.5,5.6c0.3,2.8,2.8,4.8,5.6,4.5   c7-0.8,14.1-2.2,21.1-4.3c2.6-0.8,4.8-2.6,6-5c1.3-2.4,1.5-5.2,0.6-7.7c0,0-10.3-30.8-10.4-30.9c-3.3-9.9-11.7-17.7-21.9-20.3   c-6.4-1.7-13.3-1.3-19.3,1C108,9,101.1,16.2,98.1,25.1L87.7,56c-0.9,2.6-0.6,5.3,0.6,7.7C89.6,66.1,91.8,67.9,94.3,68.7z"/><path d="M231.6,139.4H24.4c-3.2,0-5.8,2.6-5.8,5.8v30.2c0,3.2,2.6,5.8,5.8,5.8h8.4l6.9,66.1c0.3,2.9,2.8,5.1,5.7,5.1h165.2   c2.9,0,5.4-2.2,5.7-5.1l7-66.1h8.4c3.2,0,5.8-2.6,5.8-5.8v-30.2C237.4,142,234.8,139.4,231.6,139.4z M227.2,171h-7.9   c-2.9,0-5.4,2.2-5.7,5.2l-7,66.1H49.4l-6.9-66c-0.3-2.9-2.8-5.2-5.7-5.2h-8v-21.4h198.5V171z"/></g></svg>