<svg width="64" height="64" viewBox="0 0 64 64" fill="none" xmlns="http://www.w3.org/2000/svg">
<path d="M32 34C34.2091 34 36 32.2091 36 30C36 27.7909 34.2091 26 32 26C29.7909 26 28 27.7909 28 30C28 32.2091 29.7909 34 32 34Z" stroke="#CB3142" stroke-width="2" stroke-linejoin="round"/>
<path d="M32 36.0001C30.4757 35.9366 28.9884 36.4798 27.8639 37.5107C26.7393 38.5416 26.0691 39.9761 26 41.5001V47.0001C26.0107 47.5272 26.2249 48.0297 26.5977 48.4025C26.9704 48.7752 27.4729 48.9894 28 49.0001V55.8001C28.178 56.4136 28.5439 56.9558 29.0462 57.3504C29.5485 57.7451 30.1618 57.9723 30.8 58.0001H33.2C33.8382 57.9723 34.4515 57.7451 34.9538 57.3504C35.4561 56.9558 35.822 56.4136 36 55.8001V49.0001C36.5271 48.9894 37.0296 48.7752 37.4023 48.4025C37.7751 48.0297 37.9893 47.5272 38 47.0001V41.5001C37.9309 39.9761 37.2607 38.5416 36.1361 37.5107C35.0116 36.4798 33.5243 35.9366 32 36.0001Z" stroke="#CB3142" stroke-width="2" stroke-linejoin="round"/>
<path d="M53 56V23H61V20L31.937 1L3 20V23H11V28" stroke="#CB3142" stroke-width="2" stroke-linejoin="round"/>
<path d="M11 34V63H53V58" stroke="#CB3142" stroke-width="2" stroke-linejoin="round"/>
<path d="M11 30V32" stroke="#CB3142" stroke-width="2" stroke-linejoin="round"/>
</svg>
