<svg width="64" height="64" viewBox="0 0 64 64" fill="none" xmlns="http://www.w3.org/2000/svg">
<path d="M60.4667 22.2667C60.4667 34.4667 54.7333 41 32 59.8667C16.2667 46.7333 8.66667 39.6 5.46666 32.3333H22.2L24.4 35.5333C24.6667 35.8667 25.0667 36.0667 25.4667 35.9333C25.8667 35.8667 26.2 35.4667 26.2667 35.0667L28.0667 23.5333L32.1333 48.2667C32.2 48.8 32.6667 49.1333 33.1333 49.1333C33.6667 49.1333 34.0667 48.8 34.1333 48.2667L37.5333 30.2667L37.9333 31.5333C38.0667 31.9333 38.4667 32.2667 38.9333 32.2667H48.5333C49 33.3333 50 34.0667 51.2667 34.0667C52.9333 34.0667 54.2 32.7333 54.2 31.1333C54.2 29.4667 52.8667 28.2 51.2667 28.2C49.9333 28.2 48.8667 29.0667 48.4667 30.2667H39.7333L38.2667 25.8667C38.1333 25.4 37.7333 25.0667 37.2 25.1333C36.7333 25.1333 36.3333 25.5333 36.2667 26L33.2 42.2L29.0667 16.8667C29 16.3333 28.5333 16 28.0667 16C27.5333 16 27.1333 16.4 27.0667 16.8667L24.6667 32.2L23.6667 30.7333C23.4667 30.4667 23.1333 30.2667 22.8 30.2667H4.73334C3.93334 27.7333 3.6 25.1333 3.6 22.2667C3.6 9.4 11.0667 3.53333 17.9333 3.53333C25 3.53333 30.6 10.4 30.6667 10.4667C31 10.8667 31.5333 11.1333 32.0667 11.1333C32.6 11.1333 33.1333 10.8667 33.4667 10.4667C33.5333 10.4 39.0667 3.53333 46.2 3.53333C53 3.53333 60.4667 9.4 60.4667 22.2667ZM64 22.2667C64 7.66666 55 0 46.1333 0C39.6 0 34.4 4.33334 32 6.80001C29.6 4.40001 24.4 0 17.8667 0C9 0 0 7.66666 0 22.2667C0 36.8 7.53334 44.2667 30.8667 63.6C31.2 63.8667 31.6 64 32 64C32.4 64 32.8 63.8667 33.1333 63.6C56.4667 44.2667 64 36.8 64 22.2667Z" fill="#CB3142"/>
</svg>
