<?xml version="1.0" ?><!DOCTYPE svg  PUBLIC '-//W3C//DTD SVG 1.1//EN'  'http://www.w3.org/Graphics/SVG/1.1/DTD/svg11.dtd'><svg enable-background="new 0 0 800 800" height="800px" id="Layer_1" version="1.1" viewBox="0 0 800 800" width="800px" xml:space="preserve" xmlns="http://www.w3.org/2000/svg" xmlns:xlink="http://www.w3.org/1999/xlink"><g><path d="M681.601,553.592c-41.621,0-76.3,30.037-83.643,69.563H465.862c-312.217,0-373.265-117.639-391.558-220.123   c-19.354-108.356-4.449-191.743,44.294-247.829c65.644-75.533,174.228-78.801,192.703-78.801v1.053   c0,9.055,7.343,16.407,16.407,16.407h9.925v38.479h-35.56c-30.909,0-56.049,25.15-56.049,56.059V567.82   c10.199,3.598,21.13,6.9,32.813,9.914V188.399c0-12.817,10.419-23.245,23.236-23.245h51.967h45.813h51.966   c12.835,0,23.254,10.428,23.254,23.245v408.972h32.813V188.399c0-30.908-25.141-56.059-56.067-56.059h-35.561V93.861h9.943   c9.047,0,16.406-7.352,16.406-16.407V37.382c0-9.064-7.359-16.407-16.406-16.407h-98.494c-9.063,0-16.407,7.343-16.407,16.407   v6.188c-23.566-0.155-142.037,3.552-217.275,89.878c-55.739,63.959-73.244,156.595-52.021,275.35   c30.103,168.625,164.797,247.168,423.857,247.168h132.37c8.003,38.701,42.335,67.879,83.368,67.879   c46.932,0,85.127-38.188,85.127-85.129C766.728,591.777,728.532,553.592,681.601,553.592z M383.448,132.341h-13.002V93.861h13.002   V132.341z M681.601,691.031c-28.838,0-52.314-23.464-52.314-52.314c0-28.839,23.477-52.313,52.314-52.313   c28.84,0,52.314,23.474,52.314,52.313C733.915,667.567,710.44,691.031,681.601,691.031z" fill="#4D4D4D"/><path d="M475.073,722.967c0,12.816-10.419,23.246-23.254,23.246H302.073c-12.817,0-23.236-10.43-23.236-23.246   v-58.74c-11.298-2.463-22.266-5.139-32.813-8.131v66.871c0,30.908,25.14,56.058,56.049,56.058h149.746   c30.927,0,56.067-25.149,56.067-56.058V681.75h-32.813V722.967z" fill="#4D4D4D"/></g></svg>