<svg width="64" height="64" viewBox="0 0 64 64" fill="none" xmlns="http://www.w3.org/2000/svg">
<path d="M54.528 44.2881C51.1983 44.2881 48.424 46.691 47.8365 49.8531H37.2689C12.2915 49.8531 7.40766 40.442 5.94422 32.2433C4.3959 23.5748 5.5883 16.9038 9.48774 12.417C14.7393 6.37431 23.426 6.11287 24.904 6.11287V6.19711C24.904 6.92151 25.4914 7.50967 26.2165 7.50967H27.0105V10.588H24.1657C21.693 10.588 19.6818 12.6 19.6818 15.0727V45.4263C20.4977 45.7142 21.3722 45.9783 22.3069 46.2194V15.0726C22.3069 14.0473 23.1404 13.213 24.1657 13.213H28.3231H31.9881H36.1454C37.1722 13.213 38.0057 14.0473 38.0057 15.0726V47.7904H40.6308V15.0726C40.6308 12.6 38.6195 10.5879 36.1454 10.5879H33.3005V7.50959H34.096C34.8197 7.50959 35.4085 6.92143 35.4085 6.19703V2.99127C35.4085 2.26615 34.8197 1.67871 34.096 1.67871H26.2165C25.4914 1.67871 24.9039 2.26615 24.9039 2.99127V3.48631C23.0186 3.47391 13.5409 3.77047 7.5219 10.6766C3.06278 15.7933 1.66238 23.2042 3.36022 32.7046C5.76846 46.1945 16.544 52.478 37.2688 52.478H47.8584C48.4986 55.5741 51.2452 57.9083 54.5278 57.9083C58.2824 57.9083 61.338 54.8533 61.338 51.098C61.3381 47.3429 58.2825 44.2881 54.528 44.2881ZM30.6757 10.588H29.6356V7.50959H30.6757V10.588ZM54.528 55.2832C52.2209 55.2832 50.3429 53.4061 50.3429 51.0981C50.3429 48.791 52.221 46.913 54.528 46.913C56.8352 46.913 58.7131 48.791 58.7131 51.0981C58.7131 53.4061 56.8351 55.2832 54.528 55.2832Z" fill="#CB3142"/>
<path d="M38.0057 57.838C38.0057 58.8632 37.1722 59.6976 36.1454 59.6976H24.1657C23.1403 59.6976 22.3068 58.8632 22.3068 57.838V53.1388C21.403 52.9417 20.5255 52.7276 19.6818 52.4883V57.838C19.6818 60.3106 21.693 62.3226 24.1657 62.3226H36.1454C38.6195 62.3226 40.6307 60.3107 40.6307 57.838V54.5406H38.0057V57.838Z" fill="#CB3142"/>
</svg>
