<svg width="64" height="64" viewBox="0 0 64 64" fill="none" xmlns="http://www.w3.org/2000/svg">
<path d="M13.2001 20.4254C16.9501 20.4254 20.0251 17.3754 20.0251 13.6004C20.0251 9.82539 16.9751 6.77539 13.2001 6.77539C9.42512 6.77539 6.40012 9.85039 6.40012 13.6004C6.40012 17.3504 9.45012 20.4254 13.2001 20.4254ZM13.2001 9.37539C15.5251 9.37539 17.4501 11.2754 17.4501 13.6254C17.4501 15.9754 15.5501 17.8754 13.2001 17.8754C10.8501 17.8754 8.95012 15.9754 8.95012 13.6254C8.95012 11.2754 10.8751 9.37539 13.2001 9.37539Z" fill="#CB3142"/>
<path d="M21.2751 28.3247C20.5751 28.2747 19.9501 28.8247 19.9001 29.5247L18.8501 44.4997C18.8501 44.5497 18.8251 44.5747 18.8251 44.6247L17.8751 59.1997C17.8501 59.7497 17.3751 60.1997 16.8251 60.1997H9.57507C9.02507 60.1997 8.55007 59.7747 8.52507 59.1997L7.57507 44.6247C7.55007 44.0997 7.17507 43.6247 6.67507 43.4747C6.40007 43.3997 5.60007 43.1497 5.47507 43.0247C5.37507 42.8747 5.32507 42.0747 5.30007 41.6747L4.42507 26.2247V26.1997C6.05007 25.7247 7.65007 25.1997 9.27507 24.6747C10.0001 25.5247 10.7251 26.3497 11.4751 27.1997L12.2501 28.0747C12.5001 28.3497 12.8501 28.5247 13.2251 28.5247C13.6001 28.5247 13.9501 28.3747 14.2001 28.0747L15.1001 27.0497C15.8251 26.2247 16.5001 25.4497 17.1751 24.6497L28.3751 27.1747C28.5501 27.2247 28.7501 27.2247 28.9251 27.1747L39.0251 25.0997C39.7251 24.9497 40.1751 24.2747 40.0251 23.5747C39.8751 22.8747 39.2001 22.4247 38.5001 22.5747L28.6751 24.5997L17.6251 22.0997C17.5751 22.0747 17.5001 22.0747 17.4501 22.0747C17.1251 22.0497 16.0251 22.0247 15.3501 22.8247C14.6501 23.6497 13.9501 24.4497 13.2251 25.2747C12.5001 24.4497 11.8001 23.6497 11.1001 22.8247C10.4501 22.0747 9.62507 21.8247 8.72507 22.1247C7.00007 22.6997 5.27507 23.2497 3.55007 23.7747C2.45007 24.1247 1.85007 24.9497 1.85007 26.0747C1.85007 26.1497 1.85007 26.3497 1.85007 26.3747L2.70007 41.6247L2.72507 41.8747C2.87507 44.0997 3.20007 44.9497 5.07507 45.6747L5.97507 59.3997C6.10007 61.2997 7.70007 62.7997 9.60007 62.7997H16.8501C18.7501 62.7997 20.3501 61.2997 20.4751 59.3997L21.4251 44.9497C21.4251 44.8997 21.4251 44.8747 21.4501 44.8247L22.5001 29.7247C22.5001 28.9997 21.9751 28.3747 21.2751 28.3247Z" fill="#CB3142"/>
<path d="M60.8751 1.2002H13.2001C12.5001 1.2002 11.9001 1.7752 11.9001 2.5002C11.9001 3.2252 12.4751 3.8002 13.2001 3.8002H59.5751V37.3002H25.3751C24.6751 37.3002 24.0751 37.8752 24.0751 38.6002C24.0751 39.3002 24.6501 39.9002 25.3751 39.9002H60.8751C61.5751 39.9002 62.1751 39.3252 62.1751 38.6002V2.5002C62.1751 1.8002 61.6001 1.2002 60.8751 1.2002Z" fill="#CB3142"/>
</svg>
