<?xml version="1.0" ?><svg id="Layer_1" style="enable-background:new 0 0 256 256;" version="1.1" viewBox="0 0 256 256" xml:space="preserve" xmlns="http://www.w3.org/2000/svg" xmlns:xlink="http://www.w3.org/1999/xlink"><g><path d="M52.8,81.7c15,0,27.3-12.2,27.3-27.3S67.9,27.1,52.8,27.1S25.6,39.4,25.6,54.4S37.8,81.7,52.8,81.7z M52.8,37.5   c9.3,0,17,7.6,17,17s-7.6,17-17,17s-17-7.6-17-17S43.5,37.5,52.8,37.5z"/><path d="M85.1,113.3c-2.8-0.2-5.3,2-5.5,4.8L75.4,178c0,0.2-0.1,0.3-0.1,0.5l-3.8,58.3c-0.1,2.2-2,4-4.2,4h-29   c-2.2,0-4.1-1.7-4.2-4l-3.8-58.3c-0.1-2.1-1.6-4-3.6-4.6c-1.1-0.3-4.3-1.3-4.8-1.8c-0.4-0.6-0.6-3.8-0.7-5.4l-3.5-61.8l0-0.1   c6.5-1.9,12.9-4,19.4-6.1c2.9,3.4,5.8,6.7,8.8,10.1l3.1,3.5c1,1.1,2.4,1.8,3.9,1.8h0c1.5,0,2.9-0.6,3.9-1.8l3.6-4.1   c2.9-3.3,5.6-6.4,8.3-9.6l44.8,10.1c0.7,0.2,1.5,0.2,2.2,0l40.4-8.3c2.8-0.6,4.6-3.3,4-6.1c-0.6-2.8-3.3-4.6-6.1-4l-39.3,8.1   l-44.2-10c-0.2-0.1-0.5-0.1-0.7-0.1c-1.3-0.1-5.7-0.2-8.4,3c-2.8,3.3-5.6,6.5-8.5,9.8c-2.9-3.3-5.7-6.5-8.5-9.8   c-2.6-3-5.9-4-9.5-2.8C28,90.8,21.1,93,14.2,95.1c-4.4,1.4-6.8,4.7-6.8,9.2c0,0.3,0,1.1,0,1.2l3.4,61l0.1,1   c0.6,8.9,1.9,12.3,9.4,15.2l3.6,54.9c0.5,7.6,6.9,13.6,14.5,13.6h29c7.6,0,14-6,14.5-13.6l3.8-57.8c0-0.2,0-0.3,0.1-0.5l4.2-60.4   C90,116,87.9,113.5,85.1,113.3z"/><path d="M243.5,4.8H52.8c-2.8,0-5.2,2.3-5.2,5.2s2.3,5.2,5.2,5.2h185.5v134H101.5c-2.8,0-5.2,2.3-5.2,5.2c0,2.8,2.3,5.2,5.2,5.2   h142c2.8,0,5.2-2.3,5.2-5.2V10C248.7,7.2,246.4,4.8,243.5,4.8z"/></g></svg>