<svg width="64" height="64" viewBox="0 0 64 64" fill="none" xmlns="http://www.w3.org/2000/svg">
<path d="M24.5295 14.8561C24.516 14.6695 24.4539 14.4897 24.3493 14.3345L20.1913 8.20573V0H18.058V8.2152L14.0492 14.3365C13.9315 14.5134 13.8681 14.7209 13.8667 14.9333V53.3333C13.8667 53.6162 13.979 53.8875 14.1791 54.0876C14.3791 54.2876 14.6504 54.4 14.9333 54.4H16V60.8H14.9333V62.9333H23.542V60.8H22.4V54.4H23.4667C23.7496 54.4 24.0209 54.2876 24.2209 54.0876C24.421 53.8875 24.5333 53.6162 24.5333 53.3333V14.9333C24.5323 14.9075 24.5309 14.882 24.5295 14.8561ZM18.1333 60.8V54.4H20.2667V60.8H18.1333ZM22.4 52.2667H16V50.1333H19.1247V48H16V43.7333H19.1247V41.6H16V37.3333H19.1247V35.2H16V30.9333H19.1247V28.8H16V24.5333H19.1247V22.4H16V16H22.4V52.2667Z" fill="#CB3142"/>
<path d="M50.1333 26.7738V24.5338C50.6989 24.5331 51.2412 24.3081 51.6411 23.9082C52.041 23.5083 52.266 22.966 52.2667 22.4005V20.2671C52.266 19.7015 52.041 19.1593 51.6411 18.7594C51.2412 18.3594 50.6989 18.1345 50.1333 18.1338H35.2C34.6344 18.1345 34.0922 18.3594 33.6922 18.7594C33.2923 19.1593 33.0673 19.7015 33.0667 20.2671V22.4005C33.0673 22.966 33.2923 23.5083 33.6922 23.9082C34.0922 24.3081 34.6344 24.5331 35.2 24.5338V26.7738C33.9962 27.0213 32.9145 27.6764 32.1373 28.6284C31.3601 29.5805 30.9349 30.7714 30.9333 32.0005V57.6005C30.9349 59.0145 31.4973 60.3701 32.4972 61.3699C33.497 62.3698 34.8527 62.9322 36.2667 62.9338H49.0667C50.4807 62.9322 51.8363 62.3698 52.8362 61.3699C53.836 60.3701 54.3984 59.0145 54.4 57.6005V32.0005C54.3985 30.7714 53.9733 29.5805 53.1961 28.6284C52.4189 27.6764 51.3372 27.0213 50.1333 26.7738V26.7738ZM35.2 20.2671H50.1333L50.1347 22.4005H35.2V20.2671ZM36.2667 28.8005C36.5496 28.8005 36.8209 28.6881 37.0209 28.488C37.221 28.288 37.3333 28.0167 37.3333 27.7338V24.5338H48V27.7338C48 28.0167 48.1124 28.288 48.3124 28.488C48.5125 28.6881 48.7838 28.8005 49.0667 28.8005C49.9151 28.8014 50.7284 29.1389 51.3284 29.7388C51.9283 30.3387 52.2657 31.1521 52.2667 32.0005V33.0671H33.0667V32.0005C33.0676 31.1521 33.4051 30.3387 34.005 29.7388C34.6049 29.1389 35.4183 28.8014 36.2667 28.8005V28.8005ZM52.2667 54.4005H33.0667V35.2005H52.2667V54.4005ZM49.0667 60.8005H36.2667C35.4183 60.7995 34.6049 60.4621 34.005 59.8621C33.4051 59.2622 33.0676 58.4489 33.0667 57.6005V56.5338H52.2667V57.6005C52.2657 58.4489 51.9283 59.2622 51.3284 59.8621C50.7284 60.4621 49.9151 60.7995 49.0667 60.8005Z" fill="#CB3142"/>
<path d="M36.2667 47.9997H39.4667V51.1997C39.4667 51.4826 39.5791 51.7539 39.7791 51.9539C39.9791 52.154 40.2504 52.2663 40.5333 52.2663H44.8C45.0829 52.2663 45.3542 52.154 45.5543 51.9539C45.7543 51.7539 45.8667 51.4826 45.8667 51.1997V47.9997H49.0667C49.3496 47.9997 49.6209 47.8873 49.8209 47.6873C50.021 47.4872 50.1333 47.2159 50.1333 46.933V42.6663C50.1333 42.3834 50.021 42.1121 49.8209 41.9121C49.6209 41.7121 49.3496 41.5997 49.0667 41.5997H45.8667V38.3997C45.8667 38.1168 45.7543 37.8455 45.5543 37.6454C45.3542 37.4454 45.0829 37.333 44.8 37.333H40.5333C40.2504 37.333 39.9791 37.4454 39.7791 37.6454C39.5791 37.8455 39.4667 38.1168 39.4667 38.3997V41.5997H36.2667C35.9838 41.5997 35.7125 41.7121 35.5124 41.9121C35.3124 42.1121 35.2 42.3834 35.2 42.6663V46.933C35.2 47.2159 35.3124 47.4872 35.5124 47.6873C35.7125 47.8873 35.9838 47.9997 36.2667 47.9997Z" fill="#CB3142"/>
</svg>
