<?xml version="1.0" ?><svg viewBox="0 0 480 480" xmlns="http://www.w3.org/2000/svg"><g data-name="14-vaccine" id="_14-vaccine"><path d="M183.971,111.421a8.033,8.033,0,0,0-1.351-3.912L151.435,61.543V0h-16V61.614l-30.066,45.91A8.177,8.177,0,0,0,104,112V400a8,8,0,0,0,8,8h8v48h-8v16h64.565V456H168V408h8a8,8,0,0,0,8-8V112C183.992,111.806,183.982,111.615,183.971,111.421ZM136,456V408h16v48Zm32-64H120V376h23.435V360H120V328h23.435V312H120V280h23.435V264H120V232h23.435V216H120V184h23.435V168H120V120h48Z"/><path d="M376,200.8V184a16.019,16.019,0,0,0,16-16V152a16.019,16.019,0,0,0-16-16H264a16.019,16.019,0,0,0-16,16v16a16.019,16.019,0,0,0,16,16v16.8A40.071,40.071,0,0,0,232,240V432a40.045,40.045,0,0,0,40,40h96a40.045,40.045,0,0,0,40-40V240A40.071,40.071,0,0,0,376,200.8ZM264,152H376l.01,16H264Zm8,64a8,8,0,0,0,8-8V184h80v24a8,8,0,0,0,8,8,24.027,24.027,0,0,1,24,24v8H248v-8A24.027,24.027,0,0,1,272,216ZM392,408H248V264H392Zm-24,48H272a24.027,24.027,0,0,1-24-24v-8H392v8A24.027,24.027,0,0,1,368,456Z"/><path d="M272,360h24v24a8,8,0,0,0,8,8h32a8,8,0,0,0,8-8V360h24a8,8,0,0,0,8-8V320a8,8,0,0,0-8-8H344V288a8,8,0,0,0-8-8H304a8,8,0,0,0-8,8v24H272a8,8,0,0,0-8,8v32A8,8,0,0,0,272,360Z"/></g></svg>